<?xml version="1.0" standalone="no"?><!DOCTYPE svg PUBLIC "-//W3C//DTD SVG 1.1//EN" "http://www.w3.org/Graphics/SVG/1.1/DTD/svg11.dtd"><svg t="1625130645206" class="icon" viewBox="0 0 1024 1024" version="1.1" xmlns="http://www.w3.org/2000/svg" p-id="1984" xmlns:xlink="http://www.w3.org/1999/xlink" width="200" height="200"><defs><style type="text/css"></style></defs><path d="M687.881481 242.962963c-51.911111-44.325926-116.385185-64-167.348148-64s-115.437037 19.911111-167.348148 64c-136.296296 116.385185-326.637037 621.037037 167.348148 621.037037s303.644444-504.651852 167.348148-621.037037zM351.762963 652.8c-5.214815 19.437037-13.274074 38.162963-15.881482 58.311111-3.081481 22.755556 0.948148 46.459259 11.377778 66.37037-37.925926-39.585185-58.785185-98.844444-54.518518-156.681481 0.948148-9.718519 3.081481-18.488889 6.4-27.496296 3.318519-9.007407 9.718519-17.303704 18.251852-20.148148 13.274074-4.503704 27.733333 6.162963 33.896296 20.148148 8.059259 18.251852 5.688889 40.059259 0.474074 59.496296z m127.525926 18.962963c-5.214815 19.437037-13.274074 38.162963-15.881482 58.311111-3.081481 22.755556 0.948148 46.459259 11.377778 66.37037-37.925926-39.585185-58.785185-98.844444-54.518518-156.681481 0.948148-9.718519 3.081481-18.488889 6.4-27.496296 3.318519-9.007407 9.718519-17.303704 18.251852-20.148148 13.274074-4.503704 27.733333 6.162963 33.896296 20.148148 8.059259 18.251852 5.925926 40.059259 0.474074 59.496296z m-84.148148-362.192593c36.02963-24.414815 85.333333-36.02963 125.392592-36.029629s89.362963 11.377778 125.392593 36.029629c84.622222 57.6 130.133333 229.451852-125.392593 229.451852s-209.777778-171.851852-125.392592-229.451852zM556.562963 796.444444c10.192593-19.911111 14.459259-43.614815 11.377778-66.37037-2.607407-20.148148-10.666667-38.874074-15.881482-58.311111-5.214815-19.437037-7.585185-41.481481 0.711111-59.733333 6.162963-13.748148 20.622222-24.414815 33.896297-20.148149 8.533333 2.844444 14.696296 11.140741 18.251852 20.148149 3.318519 9.007407 5.451852 17.777778 6.4 27.496296 4.02963 58.074074-16.592593 117.57037-54.755556 156.918518z m127.525926-18.962963c10.192593-19.911111 14.459259-43.614815 11.377778-66.37037-2.607407-20.148148-10.666667-38.874074-15.881482-58.311111-5.214815-19.437037-7.585185-41.481481 0.711111-59.733333 6.4-13.748148 20.622222-24.414815 33.896297-20.148148 8.533333 2.844444 14.696296 11.140741 18.251851 20.148148 3.318519 9.007407 5.451852 17.777778 6.4 27.496296 4.02963 58.074074-16.592593 117.57037-54.755555 156.918518z" fill="#F6554D" p-id="1985"></path><path d="M437.096296 356.503704c-31.525926 0-56.888889 25.6-56.888889 56.888889s25.362963 56.888889 56.888889 56.888888 56.888889-25.6 56.888889-56.888888-25.362963-56.888889-56.888889-56.888889z m0 85.807407c-15.881481 0-28.918519-12.8-28.918518-28.918518s13.037037-28.918519 28.918518-28.918519c15.881481 0 28.918519 13.037037 28.918519 28.918519s-13.037037 28.918519-28.918519 28.918518zM603.97037 356.503704c-31.525926 0-56.888889 25.6-56.888889 56.888889s25.6 56.888889 56.888889 56.888888c31.525926 0 56.888889-25.6 56.888889-56.888888s-25.362963-56.888889-56.888889-56.888889z m0 85.807407c-15.881481 0-28.918519-12.8-28.918518-28.918518s13.037037-28.918519 28.918518-28.918519c15.881481 0 28.918519 13.037037 28.918519 28.918519s-13.037037 28.918519-28.918519 28.918518z" fill="#F6554D" p-id="1986"></path></svg>